<?xml version="1.0" encoding="UTF-8"?>
<svg width="243px" height="243px" viewBox="0 0 243 243" version="1.1" xmlns="http://www.w3.org/2000/svg" xmlns:xlink="http://www.w3.org/1999/xlink">
    <title>diagonal-arrow-svgrepo-com</title>
    <g id="Page-1" stroke="none" stroke-width="1" fill="none" fill-rule="evenodd">
        <g id="diagonal-arrow-svgrepo-com" fill="#F7B500" fill-rule="nonzero">
            <path d="M190.919,212.133 L121.066,212.133 C112.782,212.133 106.066,218.849 106.066,227.133 C106.066,235.417 112.782,242.133 121.066,242.133 L227.131,242.133 C235.415,242.133 242.131,235.417 242.131,227.133 L242.131,121.066 C242.131,112.782 235.415,106.066 227.131,106.066 C218.847,106.066 212.131,112.782 212.131,121.066 L212.131,190.92 L25.607,4.394 C19.749,-1.464 10.251,-1.464 4.394,4.394 C-1.464,10.252 -1.464,19.75 4.394,25.607 L190.919,212.133 Z" id="XMLID_24_" transform="translate(121.065750, 121.066750) scale(1, -1) translate(-121.065750, -121.066750) "></path>
        </g>
    </g>
</svg>