<?xml version="1.0" encoding="UTF-8"?>
<svg width="331px" height="246px" viewBox="0 0 331 246" version="1.1" xmlns="http://www.w3.org/2000/svg" xmlns:xlink="http://www.w3.org/1999/xlink">
    <title>Untitled 3</title>
    <g id="Page-1" stroke="none" stroke-width="1" fill="none" fill-rule="evenodd">
        <g id="login-svgrepo-com" transform="translate(0.000000, 0.300000)" fill="#66CDAA" fill-rule="nonzero">
            <path d="M169.392,157.095 C163.534,162.952 163.534,172.45 169.392,178.308 C172.321,181.237 176.159,182.702 179.999,182.702 C183.837,182.702 187.677,181.237 190.605,178.308 L235.603,133.311 C235.95,132.964 236.279,132.599 236.591,132.22 C236.66,132.136 236.719,132.044 236.787,131.958 C237.022,131.659 237.254,131.358 237.467,131.041 C237.522,130.958 237.568,130.87 237.621,130.787 C237.832,130.458 238.039,130.125 238.224,129.78 C238.256,129.72 238.281,129.657 238.312,129.596 C238.506,129.222 238.69,128.843 238.853,128.451 C238.87,128.411 238.881,128.37 238.897,128.33 C239.064,127.919 239.217,127.501 239.347,127.072 C239.361,127.026 239.369,126.978 239.383,126.932 C239.506,126.513 239.618,126.088 239.704,125.654 C239.728,125.533 239.739,125.409 239.76,125.287 C239.823,124.927 239.885,124.567 239.922,124.199 C239.972,123.703 239.998,123.204 239.998,122.702 C239.998,122.199 239.972,121.7 239.922,121.205 C239.885,120.834 239.822,120.471 239.758,120.108 C239.737,119.989 239.727,119.868 239.703,119.75 C239.616,119.313 239.504,118.886 239.38,118.464 C239.367,118.42 239.36,118.376 239.346,118.332 C239.215,117.9 239.06,117.48 238.892,117.065 C238.877,117.029 238.867,116.99 238.851,116.954 C238.687,116.56 238.502,116.178 238.307,115.802 C238.277,115.744 238.253,115.683 238.222,115.626 C238.035,115.278 237.828,114.944 237.616,114.613 C237.563,114.531 237.519,114.445 237.465,114.364 C237.252,114.047 237.02,113.744 236.784,113.445 C236.717,113.359 236.658,113.268 236.589,113.184 C236.277,112.805 235.948,112.44 235.601,112.093 L190.603,67.095 C184.746,61.237 175.248,61.237 169.39,67.095 C163.532,72.953 163.532,82.45 169.39,88.308 L188.783,107.702 L15,107.702 C6.716,107.702 0,114.418 0,122.702 C0,130.986 6.716,137.702 15,137.702 L188.785,137.702 L169.392,157.095 Z" id="XMLID_10_"></path>
            <path d="M207.301,1.42108547e-14 C166.356,1.42108547e-14 128.261,20.312 105.398,54.333 C100.777,61.209 102.605,70.529 109.481,75.149 C116.357,79.77 125.677,77.942 130.297,71.066 C147.578,45.352 176.365,30 207.301,30 C258.417,30 300.002,71.586 300.002,122.701 C300.002,173.816 258.416,215.402 207.301,215.402 C176.457,215.402 147.716,200.119 130.422,174.52 C125.784,167.656 116.46,165.85 109.595,170.488 C102.731,175.126 100.925,184.45 105.563,191.315 C128.445,225.183 166.478,245.402 207.301,245.402 C274.959,245.402 330.002,190.358 330.002,122.701 C330.002,55.044 274.958,1.42108547e-14 207.301,1.42108547e-14 Z" id="XMLID_11_"></path>
        </g>
    </g>
</svg>