<?xml version="1.0" encoding="UTF-8"?>
<svg width="800px" height="596px" viewBox="0 0 800 596" version="1.1" xmlns="http://www.w3.org/2000/svg" xmlns:xlink="http://www.w3.org/1999/xlink">
    <title>logout-svgrepo-com</title>
    <g id="Page-1" stroke="none" stroke-width="1" fill="none" fill-rule="evenodd">
        <g id="logout-svgrepo-com" transform="translate(0.000000, 0.543030)" fill="#66CDAA" fill-rule="nonzero">
            <path d="M124.152727,333.820606 L545.449697,333.820606 C565.532121,333.820606 581.813333,317.539394 581.813333,297.45697 C581.813333,277.374545 565.532121,261.093333 545.449697,261.093333 L124.152727,261.093333 L171.168485,214.08 C185.369697,199.881212 185.369697,176.855758 171.168485,162.654545 C156.972121,148.453333 133.946667,148.453333 119.74303,162.654545 L10.6593939,271.738182 C9.81575758,272.579394 9.02060606,273.459394 8.26424242,274.380606 C8.08,274.606061 7.92242424,274.848485 7.7430303,275.078788 C7.18787879,275.784242 6.64242424,276.492121 6.1430303,277.238788 C5.99757576,277.45697 5.87878788,277.687273 5.73575758,277.907879 C5.23636364,278.688485 4.74666667,279.476364 4.30545455,280.298182 C4.22060606,280.460606 4.15030303,280.632727 4.06545455,280.795152 C3.60727273,281.684848 3.16606061,282.586667 2.78060606,283.517576 C2.73212121,283.631515 2.69818182,283.752727 2.65212121,283.869091 C2.2569697,284.848485 1.89090909,285.84 1.58060606,286.860606 C1.53939394,286.989091 1.51757576,287.122424 1.48121212,287.253333 C1.18787879,288.254545 0.918787879,289.265455 0.712727273,290.300606 C0.652121212,290.608485 0.625454545,290.926061 0.56969697,291.236364 C0.419393939,292.094545 0.269090909,292.952727 0.184242424,293.827879 C0.0606060606,295.027879 0,296.24 0,297.45697 C0,298.673939 0.0606060606,299.886061 0.184242424,301.088485 C0.269090909,301.975758 0.424242424,302.841212 0.572121212,303.706667 C0.625454545,304.007273 0.652121212,304.315152 0.712727273,304.613333 C0.921212121,305.658182 1.18787879,306.678788 1.48363636,307.689697 C1.52,307.808485 1.54181818,307.934545 1.57818182,308.053333 C1.89090909,309.078788 2.2569697,310.08 2.6569697,311.069091 C2.70060606,311.175758 2.73212121,311.289697 2.77818182,311.396364 C3.16606061,312.334545 3.60969697,313.241212 4.07272727,314.135758 C4.15272727,314.293333 4.22060606,314.458182 4.3030303,314.615758 C4.74909091,315.442424 5.24121212,316.237576 5.74787879,317.025455 C5.88363636,317.238788 6,317.464242 6.14060606,317.672727 C6.64242424,318.421818 7.19272727,319.134545 7.74545455,319.842424 C7.92242424,320.070303 8.08,320.310303 8.26181818,320.533333 C9.02060606,321.452121 9.81575758,322.334545 10.6569697,323.175758 L119.740606,432.259394 C126.841212,439.362424 136.147879,442.911515 145.454545,442.911515 C154.761212,442.911515 164.067879,439.362424 171.166061,432.259394 C185.367273,418.058182 185.367273,395.035152 171.166061,380.833939 L124.152727,333.820606 Z" id="XMLID_4_"></path>
            <path d="M502.54303,-2.84217094e-14 C403.284848,-2.84217094e-14 310.935758,49.2412121 255.505455,131.716364 C244.305455,148.38303 248.73697,170.97697 265.403636,182.179394 C282.072727,193.379394 304.664242,188.952727 315.869091,172.281212 C357.762424,109.941818 427.546667,72.7248485 502.54303,72.7248485 C626.458182,72.7272727 727.272727,173.539394 727.272727,297.45697 C727.272727,421.374545 626.458182,522.186667 502.54303,522.186667 C427.767273,522.186667 358.09697,485.13697 316.172121,423.081212 C304.926061,406.438788 282.327273,402.065455 265.682424,413.306667 C249.042424,424.550303 244.664242,447.153939 255.907879,463.793939 C311.37697,545.898182 403.575758,594.913939 502.54303,594.913939 C666.56,594.913939 800,461.476364 800,297.45697 C800,133.437576 666.56,-2.84217094e-14 502.54303,-2.84217094e-14 Z" id="XMLID_5_"></path>
        </g>
    </g>
</svg>