<?xml version="1.0" encoding="UTF-8"?>
<svg width="74px" height="100px" viewBox="0 0 74 100" version="1.1" xmlns="http://www.w3.org/2000/svg" xmlns:xlink="http://www.w3.org/1999/xlink">
    <title>trash</title>
    <g id="Page-1" stroke="none" stroke-width="1" fill="none" fill-rule="evenodd">
        <g id="trash" transform="translate(0.903778, 0.000000)" fill="#821423" fill-rule="nonzero">
            <path d="M28.0962223,0 C24.8071603,0 22.0962223,2.710938 22.0962223,6 L22.0962223,10 L6.47122226,10 C6.22122226,9.953126 5.97122226,9.953126 5.72122226,10 L2.09622226,10 C2.03372226,10 1.97122226,10 1.90872226,10 C0.807160257,10.054688 -0.0522157431,10.992188 0.00247225695,12.09375 C0.0571602569,13.195312 0.994660257,14.054688 2.09622226,14 L4.28372226,14 L11.4712223,95 C11.7212223,97.796876 14.1040343,100 16.9087223,100 L55.2837223,100 C58.0884103,100 60.4712223,97.796876 60.7212223,95 L67.9087223,14 L70.0962223,14 C70.8149723,14.007812 71.4868483,13.632812 71.8540343,13.007812 C72.2134103,12.382812 72.2134103,11.617188 71.8540343,10.992188 C71.4868483,10.367188 70.8149723,9.992188 70.0962223,10 L50.0962223,10 L50.0962223,6 C50.0962223,2.710938 47.3852843,0 44.0962223,0 L28.0962223,0 Z M28.0962223,4 L44.0962223,4 C45.2212223,4 46.0962223,4.875 46.0962223,6 L46.0962223,10 L26.0962223,10 L26.0962223,6 C26.0962223,4.875 26.9712223,4 28.0962223,4 Z M8.28372226,14 L63.9087223,14 L56.7212223,94.6875 C56.6587223,95.382812 55.9165343,96 55.2837223,96 L16.9087223,96 C16.2759103,96 15.5337223,95.382812 15.4712223,94.6875 L8.28372226,14 Z M23.9087223,19.9375 C23.8227843,19.953126 23.7368483,19.976562 23.6587223,20 C22.7290343,20.210938 22.0727843,21.046876 22.0962223,22 L22.0962223,88 C22.0884103,88.71875 22.4634103,89.390626 23.0884103,89.757812 C23.7134103,90.117188 24.4790343,90.117188 25.1040343,89.757812 C25.7290343,89.390626 26.1040343,88.71875 26.0962223,88 L26.0962223,22 C26.1196603,21.421876 25.8852843,20.867188 25.4712223,20.476562 C25.0493483,20.078126 24.4790343,19.882812 23.9087223,19.9375 Z M35.9087223,19.9375 C35.8227843,19.953126 35.7368483,19.976562 35.6587223,20 C34.7290343,20.210938 34.0727843,21.046876 34.0962223,22 L34.0962223,88 C34.0884103,88.71875 34.4634103,89.390626 35.0884103,89.757812 C35.7134103,90.117188 36.4790343,90.117188 37.1040343,89.757812 C37.7290343,89.390626 38.1040343,88.71875 38.0962223,88 L38.0962223,22 C38.1196603,21.421876 37.8852843,20.867188 37.4712223,20.476562 C37.0493483,20.078126 36.4790343,19.882812 35.9087223,19.9375 Z M47.9087223,19.9375 C47.8227843,19.953126 47.7368483,19.976562 47.6587223,20 C46.7290343,20.210938 46.0727843,21.046876 46.0962223,22 L46.0962223,88 C46.0884103,88.71875 46.4634103,89.390626 47.0884103,89.757812 C47.7134103,90.117188 48.4790343,90.117188 49.1040343,89.757812 C49.7290343,89.390626 50.1040343,88.71875 50.0962223,88 L50.0962223,22 C50.1196603,21.421876 49.8852843,20.867188 49.4712223,20.476562 C49.0493483,20.078126 48.4790343,19.882812 47.9087223,19.9375 Z" id="Shape"></path>
        </g>
    </g>
</svg>