<?xml version="1.0" encoding="UTF-8"?>
<svg width="344px" height="344px" viewBox="0 0 344 344" version="1.1" xmlns="http://www.w3.org/2000/svg" xmlns:xlink="http://www.w3.org/1999/xlink">
    <title>diagonal-arrow-svgrepo-com</title>
    <g id="Page-1" stroke="none" stroke-width="1" fill="none" fill-rule="evenodd">
        <g id="diagonal-arrow-svgrepo-com" fill="#AFAFAF" fill-rule="nonzero">
            <path d="M241.919,263.133 L172.066,263.133 C163.782,263.133 157.066,269.849 157.066,278.133 C157.066,286.417 163.782,293.133 172.066,293.133 L278.131,293.133 C286.415,293.133 293.131,286.417 293.131,278.133 L293.131,172.066 C293.131,163.782 286.415,157.066 278.131,157.066 C269.847,157.066 263.131,163.782 263.131,172.066 L263.131,241.92 L76.607,55.394 C70.749,49.536 61.251,49.536 55.394,55.394 C49.536,61.252 49.536,70.75 55.394,76.607 L241.919,263.133 Z" id="XMLID_24_" transform="translate(172.065750, 172.066750) scale(1, -1) rotate(-45.000000) translate(-172.065750, -172.066750) "></path>
        </g>
    </g>
</svg>